<?xml version="1.0" standalone="no"?>
<!DOCTYPE svg PUBLIC "-//W3C//DTD SVG 20010904//EN"
 "http://www.w3.org/TR/2001/REC-SVG-20010904/DTD/svg10.dtd">
<svg version="1.0" xmlns="http://www.w3.org/2000/svg"
 width="512.000000pt" height="512.000000pt" viewBox="0 0 512.000000 512.000000"
 preserveAspectRatio="xMidYMid meet">
<metadata>
Created by potrace 1.11, written by Peter Selinger 2001-2013
</metadata>
<g transform="translate(0.000000,512.000000) scale(0.100000,-0.100000)"
fill="#000000" stroke="none">
<path d="M410 2825 l0 -705 205 0 206 0 -3 415 -3 415 19 -57 c17 -54 248
-719 262 -756 5 -15 26 -17 164 -17 141 0 159 2 165 18 11 28 236 673 255 732
18 55 18 54 19 -347 l1 -403 210 0 210 0 0 49 c0 47 -1 50 -88 137 -98 98
-149 180 -190 302 -23 68 -26 93 -26 217 0 124 3 149 26 217 41 122 92 204
190 302 87 87 88 89 88 138 l0 48 -271 -2 -272 -3 -151 -437 c-83 -241 -153
-438 -156 -438 -3 0 -73 197 -156 438 l-152 437 -276 3 -276 2 0 -705z"/>
<path d="M3000 3477 c0 -52 1 -53 60 -105 94 -83 189 -232 214 -334 l6 -28
-202 0 -203 0 -48 55 c-32 37 -69 64 -114 87 -63 31 -75 33 -163 32 -74 0
-105 -5 -140 -21 -108 -50 -178 -127 -212 -235 -23 -77 -23 -130 2 -209 86
-273 440 -348 627 -134 l48 55 203 0 202 0 -6 -27 c-25 -103 -120 -252 -214
-335 -59 -52 -60 -53 -60 -105 l0 -53 206 0 206 0 -4 413 -3 412 76 -225 c42
-124 106 -308 141 -410 l65 -185 161 -3 160 -2 20 57 c11 32 72 208 136 391
64 183 116 338 116 345 0 6 4 17 8 24 4 6 6 -175 4 -403 l-3 -414 211 0 210 0
0 705 0 705 -271 -2 -271 -3 -150 -430 c-82 -236 -153 -433 -157 -438 -4 -4
-48 111 -98 255 -51 145 -119 343 -153 441 l-62 177 -274 0 -274 0 0 -53z"/>
<path d="M815 1899 c-74 -28 -115 -104 -96 -177 20 -72 103 -121 183 -108 61
10 78 22 78 57 0 30 0 30 -30 14 -60 -31 -123 -15 -145 38 -37 90 53 159 145
112 30 -16 30 -16 30 14 0 20 -7 34 -20 41 -31 16 -111 21 -145 9z"/>
<path d="M1010 1761 l0 -151 40 0 40 0 0 50 0 50 35 0 c59 0 101 23 114 63 15
44 7 78 -26 109 -21 20 -37 23 -114 26 l-89 4 0 -151z m141 89 c12 -7 19 -21
19 -40 0 -31 -22 -50 -59 -50 -18 0 -21 6 -21 50 0 44 3 50 21 50 11 0 29 -5
40 -10z"/>
<path d="M1333 1893 c-3 -10 -30 -78 -59 -150 l-52 -133 34 0 c29 0 36 5 48
35 14 33 17 35 65 35 48 0 51 -2 65 -35 13 -30 20 -35 49 -35 l35 0 -59 148
c-56 142 -59 147 -89 150 -22 2 -32 -2 -37 -15z m47 -98 c25 -67 24 -75 -9
-75 -17 0 -31 5 -31 11 0 16 22 89 27 89 2 0 8 -11 13 -25z"/>
<path d="M1920 1897 c-34 -17 -47 -59 -32 -99 10 -28 9 -34 -13 -60 -14 -16
-25 -37 -25 -47 0 -48 72 -89 133 -75 17 4 54 7 82 5 l50 -2 -23 24 c-19 20
-21 28 -12 51 18 49 13 66 -20 66 -24 0 -30 -4 -30 -22 0 -20 -1 -21 -20 -3
-19 18 -19 18 5 47 38 45 32 89 -16 113 -34 18 -47 18 -79 2z m58 -61 c5 -26
-17 -49 -34 -35 -17 14 -18 31 -2 47 16 16 32 10 36 -12z m3 -169 c-13 -13
-58 0 -65 19 -4 9 -1 23 5 31 10 12 17 9 41 -14 17 -16 25 -30 19 -36z"/>
<path d="M2323 1893 c-3 -10 -30 -78 -59 -150 l-52 -133 34 0 c29 0 36 5 48
35 14 33 17 35 65 35 48 0 51 -2 65 -35 13 -30 20 -35 49 -35 l35 0 -59 148
c-56 142 -59 147 -89 150 -22 2 -32 -2 -37 -15z m52 -109 c22 -53 19 -64 -15
-64 -16 0 -30 5 -30 11 0 15 22 89 26 89 2 0 11 -16 19 -36z"/>
<path d="M2580 1760 l0 -153 83 5 c134 7 182 46 182 148 0 102 -48 141 -182
148 l-83 5 0 -153z m154 79 c34 -16 51 -68 36 -113 -12 -36 -44 -56 -90 -56
l-30 0 0 90 0 90 30 0 c16 0 40 -5 54 -11z"/>
<path d="M2912 1760 c57 -143 62 -150 88 -150 26 0 31 7 88 150 l60 150 -36 0
-37 0 -34 -94 c-19 -52 -38 -93 -42 -91 -3 3 -21 45 -39 95 l-32 90 -38 0 -38
0 60 -150z"/>
<path d="M3180 1760 l0 -150 45 0 45 0 0 150 0 150 -45 0 -45 0 0 -150z"/>
<path d="M3364 1900 c-29 -12 -54 -49 -54 -80 0 -37 25 -67 68 -81 20 -6 43
-16 50 -22 17 -13 15 -44 -3 -51 -19 -7 -73 3 -81 15 -10 16 -32 9 -37 -11 -8
-29 34 -53 92 -54 61 -1 98 23 107 69 9 49 -15 81 -82 111 -57 25 -63 34 -40
53 11 9 25 10 52 2 42 -12 54 -8 54 19 0 30 -80 49 -126 30z"/>
<path d="M3647 1896 c-144 -53 -135 -236 14 -276 69 -19 149 10 185 66 25 37
24 116 -3 152 -43 58 -128 83 -196 58z m103 -56 c29 -15 44 -73 30 -115 -13
-39 -35 -55 -75 -55 -40 0 -62 16 -75 55 -13 41 1 99 28 115 22 12 68 13 92 0z"/>
<path d="M3930 1760 l0 -150 40 0 40 0 0 60 c0 77 14 77 64 0 36 -56 41 -60
77 -60 21 0 39 3 39 6 0 3 -18 30 -39 60 l-39 54 29 29 c31 31 35 53 19 96
-14 37 -65 55 -155 55 l-75 0 0 -150z m148 88 c21 -21 14 -58 -14 -68 -47 -18
-54 -14 -54 35 0 43 1 45 28 45 15 0 33 -5 40 -12z"/>
<path d="M4264 1900 c-29 -12 -54 -49 -54 -80 0 -37 25 -67 68 -81 20 -6 43
-16 50 -22 17 -13 15 -44 -3 -51 -19 -7 -73 3 -81 15 -10 16 -32 9 -37 -11 -8
-29 34 -53 92 -54 61 -1 98 23 107 69 9 49 -15 81 -82 111 -57 25 -63 34 -40
53 11 9 25 10 52 2 42 -12 54 -8 54 19 0 30 -80 49 -126 30z"/>
<path d="M1600 1809 c-29 -12 -40 -26 -40 -56 0 -29 23 -50 70 -63 22 -6 40
-15 40 -20 0 -15 -34 -20 -70 -10 -19 6 -35 10 -36 10 -1 0 -4 -9 -7 -20 -4
-16 2 -22 35 -31 55 -14 108 -1 127 33 13 23 13 28 -2 51 -10 15 -34 31 -57
38 -62 19 -48 48 14 31 29 -9 35 -7 39 8 8 32 -62 49 -113 29z"/>
</g>
</svg>
